<svg width="17" height="17" viewBox="0 0 17 17" fill="none" xmlns="http://www.w3.org/2000/svg">
<path d="M0.263672 8.26376C0.263672 9.85163 0.73453 11.4038 1.6167 12.7241C2.49887 14.0444 3.75274 15.0734 5.21974 15.681C6.68674 16.2887 8.30098 16.4477 9.85834 16.1379C11.4157 15.8281 12.8462 15.0635 13.969 13.9407C15.0918 12.8179 15.8564 11.3874 16.1662 9.83002C16.476 8.27266 16.317 6.65842 15.7094 5.19142C15.1017 3.72442 14.0727 2.47055 12.7524 1.58838C11.4322 0.706209 9.87995 0.235352 8.29208 0.235352C6.16281 0.235352 4.12076 1.0812 2.61514 2.58682C1.10952 4.09244 0.263672 6.13449 0.263672 8.26376ZM3.70442 7.6903L10.6719 7.6903L7.47203 4.47492L8.29208 3.6761L12.8797 8.26376L8.29208 12.8514L7.47203 12.0331L10.6719 8.83721L3.70442 8.83721V7.6903Z" fill="#FBF7E4"/>
</svg>
