<svg width="81" height="83" viewBox="0 0 81 83" fill="none" xmlns="http://www.w3.org/2000/svg">
<path d="M6.89998 75.1763L11.4497 58.2009C8.45179 52.9827 6.87675 47.048 6.88652 41.0068C6.88652 22.1351 21.9524 6.8374 40.5382 6.8374C59.1241 6.8374 74.1899 22.1351 74.1899 41.0068C74.1899 59.8786 59.1241 75.1763 40.5382 75.1763C34.5912 75.186 28.7489 73.588 23.6114 70.5463L6.89998 75.1763ZM28.3933 24.9745C27.9588 25.0019 27.5341 25.1182 27.1449 25.3162C26.7798 25.5261 26.4466 25.7885 26.1555 26.0953C25.7517 26.4814 25.5228 26.8163 25.2772 27.1409C24.0335 28.7844 23.3645 30.8019 23.3759 32.8745C23.3826 34.5488 23.8133 36.1787 24.4864 37.7027C25.8627 40.7847 28.1275 44.0479 31.1191 47.0719C31.8393 47.7997 32.5426 48.5309 33.2997 49.2109C37.0128 52.5303 41.4376 54.9242 46.222 56.202L48.1368 56.4993C48.7593 56.5334 49.3819 56.4856 50.0078 56.4548C50.9879 56.4035 51.9449 56.134 52.811 55.6655C53.2517 55.435 53.6818 55.1842 54.0999 54.9138C54.0999 54.9138 54.2446 54.8181 54.5205 54.6063C54.9748 54.2646 55.2541 54.022 55.631 53.6222C55.9103 53.3283 56.1526 52.9832 56.3377 52.5903C56.6002 52.0333 56.8627 50.9706 56.9704 50.0857C57.0511 49.4091 57.0276 49.0401 57.0175 48.8111C57.004 48.4455 56.7045 48.0662 56.3781 47.9056L54.4196 47.0138C54.4196 47.0138 51.4919 45.7188 49.705 44.8919C49.5166 44.8085 49.3147 44.761 49.1093 44.7518C48.8791 44.7278 48.6464 44.7541 48.427 44.8289C48.2076 44.9038 48.0065 45.0255 47.8373 45.1858V45.1789C47.8205 45.1789 47.595 45.3737 45.162 48.3669C45.0223 48.5575 44.83 48.7015 44.6094 48.7806C44.3889 48.8597 44.1501 48.8703 43.9236 48.8111C43.7043 48.7516 43.4895 48.6762 43.2808 48.5856C42.8636 48.4079 42.7189 48.3396 42.4328 48.2132L42.416 48.2063C40.4908 47.3529 38.7083 46.2001 37.1327 44.7894C36.7087 44.4135 36.3149 44.0035 35.9111 43.6071C34.5872 42.3198 33.4334 40.8634 32.4786 39.2744L32.2801 38.9498C32.1375 38.7317 32.0222 38.4964 31.9369 38.2494C31.809 37.7471 32.1421 37.3439 32.1421 37.3439C32.1421 37.3439 32.9599 36.435 33.3401 35.9429C33.6568 35.534 33.9522 35.1086 34.2252 34.6684C34.6223 34.0192 34.7468 33.3529 34.5381 32.8369C33.5959 30.4997 32.62 28.1728 31.6172 25.8629C31.4186 25.4051 30.8297 25.077 30.2947 25.0121C30.1129 24.9916 29.9312 24.9711 29.7495 24.9575C29.2976 24.9347 28.8447 24.9392 28.3933 24.9711V24.9745Z" fill="#FBF7E4"/>
</svg>
