<svg width="67" height="68" viewBox="0 0 67 68" fill="none" xmlns="http://www.w3.org/2000/svg">
<path d="M33.4253 22.6845C27.3689 22.6845 22.4265 27.7723 22.4265 34.0068C22.4265 40.2412 27.3689 45.329 33.4253 45.329C39.4816 45.329 44.424 40.2412 44.424 34.0068C44.424 27.7723 39.4816 22.6845 33.4253 22.6845ZM66.4133 34.0068C66.4133 29.3182 66.4546 24.6721 66.1988 19.992C65.943 14.5559 64.7384 9.73143 60.8768 5.75632C57.007 1.77272 52.3286 0.541117 47.0479 0.277809C42.4933 0.0145006 37.9799 0.0569698 33.4335 0.0569698C28.8789 0.0569698 24.3655 0.0145006 19.8191 0.277809C14.5384 0.541117 9.85175 1.78121 5.99021 5.75632C2.12042 9.73992 0.924009 14.5559 0.668223 19.992C0.412438 24.6806 0.453694 29.3267 0.453694 34.0068C0.453694 38.6869 0.412438 43.3415 0.668223 48.0216C0.924009 53.4576 2.12868 58.2821 5.99021 62.2572C9.86 66.2408 14.5384 67.4724 19.8191 67.7357C24.3738 67.999 28.8871 67.9566 33.4335 67.9566C37.9881 67.9566 42.5015 67.999 47.0479 67.7357C52.3286 67.4724 57.0153 66.2323 60.8768 62.2572C64.7466 58.2736 65.943 53.4576 66.1988 48.0216C66.4628 43.3415 66.4133 38.6954 66.4133 34.0068ZM33.4253 51.4276C24.0602 51.4276 16.5022 43.6473 16.5022 34.0068C16.5022 24.3663 24.0602 16.5859 33.4253 16.5859C42.7903 16.5859 50.3484 24.3663 50.3484 34.0068C50.3484 43.6473 42.7903 51.4276 33.4253 51.4276ZM51.0415 19.941C48.8549 19.941 47.0892 18.1233 47.0892 15.8725C47.0892 13.6216 48.8549 11.8039 51.0415 11.8039C53.228 11.8039 54.9938 13.6216 54.9938 15.8725C54.9944 16.4069 54.8926 16.9363 54.6942 17.4302C54.4958 17.9241 54.2047 18.3729 53.8376 18.7509C53.4705 19.1288 53.0345 19.4284 52.5547 19.6327C52.0749 19.8369 51.5607 19.9417 51.0415 19.941Z" fill="#FBF7E4"/>
</svg>
