<svg width="117" height="77" viewBox="0 0 117 77" fill="none" xmlns="http://www.w3.org/2000/svg">
<path d="M0.72 57.22C1.98 55.12 3.77667 52.5533 6.11 49.52C8.49 46.44 11.1267 43.1733 14.02 39.72C13.46 39.1133 13.04 38.6467 12.76 38.32C12.5267 37.9933 12.0833 37.5733 11.43 37.06C10.5433 36.6867 9.56333 36.2667 8.49 35.8C7.41667 35.3333 6.41333 34.8433 5.48 34.33C4.54667 33.77 3.75333 33.21 3.1 32.65C2.49333 32.0433 2.19 31.46 2.19 30.9C2.23667 30.2467 2.47 29.85 2.89 29.71C3.35667 29.57 3.91667 29.6167 4.57 29.85C5.27 30.0367 6.04 30.3867 6.88 30.9C7.72 31.3667 8.56 31.9033 9.4 32.51C10.24 33.1167 11.01 33.7233 11.71 34.33C12.4567 34.89 13.0867 35.38 13.6 35.8C14.2067 35.9867 14.6733 36.08 15 36.08C15.3267 36.08 15.8867 36.1733 16.68 36.36H16.89C18.7567 34.26 20.8333 31.95 23.12 29.43C25.4533 26.91 27.8567 24.3667 30.33 21.8C32.8033 19.1867 35.2533 16.69 37.68 14.31C40.1067 11.8833 42.37 9.71333 44.47 7.8C45.2167 7.1 45.94 6.51666 46.64 6.05C47.34 5.58333 47.9467 5.32666 48.46 5.28C48.9733 5.23333 49.3467 5.46666 49.58 5.98C49.86 6.49333 49.93 7.38 49.79 8.64C49.6033 10.1333 49.2533 11.9067 48.74 13.96C48.2267 16.0133 47.5967 18.2767 46.85 20.75C46.1033 23.1767 45.2633 25.7667 44.33 28.52C43.3967 31.2267 42.4167 34.0033 41.39 36.85C43.1633 36.71 44.96 36.5233 46.78 36.29C48.6 36.01 50.3733 35.7533 52.1 35.52C50.3733 35.8467 48.5767 36.1733 46.71 36.5C44.89 36.8267 43.0933 37.1067 41.32 37.34C40.06 40.7933 38.7767 44.2933 37.47 47.84C36.21 51.34 34.9733 54.7 33.76 57.92C32.5933 61.14 31.4967 64.1267 30.47 66.88C29.49 69.6333 28.6733 72.0133 28.02 74.02C28.3467 72.5267 28.8833 70.4733 29.63 67.86C30.3767 65.2933 31.2633 62.3767 32.29 59.11C33.3167 55.89 34.4133 52.4367 35.58 48.75C36.7467 45.0633 37.9367 41.3767 39.15 37.69C35.8367 38.2033 32.57 38.5767 29.35 38.81C26.1767 38.9967 23.0033 38.9733 19.83 38.74L18.57 40.21C21.09 42.59 23.2833 45.18 25.15 47.98C27.0167 50.78 28.44 53.9767 29.42 57.57C29.5133 57.8967 29.5833 58.27 29.63 58.69C29.7233 59.1567 29.7233 59.5533 29.63 59.88C29.5367 60.2533 29.3267 60.5333 29 60.72C28.72 60.9067 28.2767 60.8833 27.67 60.65C26.9233 57.01 25.6167 53.6267 23.75 50.5C21.8833 47.3267 19.6433 44.48 17.03 41.96C14.65 44.9 12.4333 47.6533 10.38 50.22C8.37333 52.7867 6.71667 55.05 5.41 57.01C4.75667 57.9433 4.15 58.48 3.59 58.62C3.03 58.8067 2.51667 58.8067 2.05 58.62C1.63 58.4333 1.30333 58.1767 1.07 57.85C0.836667 57.5233 0.72 57.3133 0.72 57.22ZM15.56 38.04L15.77 37.83H15.42L15.56 38.04ZM39.22 37.2C40.2933 33.98 41.2967 30.8533 42.23 27.82C43.21 24.74 44.05 21.9167 44.75 19.35C45.4967 16.7833 46.08 14.52 46.5 12.56C46.9667 10.6 47.2 9.08333 47.2 8.01C47.1067 8.10333 47.0367 8.17333 46.99 8.22C46.99 8.26666 46.9667 8.33666 46.92 8.43C46.8733 8.52333 46.85 8.59333 46.85 8.64C45.3567 10.18 43.63 12.0233 41.67 14.17C39.71 16.3167 37.5867 18.65 35.3 21.17C33.06 23.69 30.7267 26.3267 28.3 29.08C25.8733 31.7867 23.47 34.4933 21.09 37.2C24.03 37.62 27.0167 37.7833 30.05 37.69C33.0833 37.5967 36.14 37.4333 39.22 37.2ZM42.8463 49.38C43.4997 47.5133 44.3397 45.3433 45.3663 42.87C46.393 40.3967 47.373 38.0167 48.3063 35.73C49.4263 32.93 50.4063 30.0833 51.2463 27.19C52.133 24.2967 53.0197 21.45 53.9063 18.65C54.793 15.8033 55.7497 13.0733 56.7763 10.46C57.803 7.8 59.063 5.30333 60.5563 2.97C61.0697 2.13 61.583 1.54666 62.0963 1.22C62.6097 0.893331 63.053 0.75333 63.4263 0.799996C63.8463 0.799996 64.1497 1.01 64.3363 1.43C64.5697 1.80333 64.663 2.31666 64.6163 2.97C64.4763 4.23 63.9863 6.07333 63.1463 8.5C62.353 10.9267 61.3497 13.6333 60.1363 16.62C58.9697 19.56 57.6397 22.6633 56.1463 25.93C54.653 29.1967 53.183 32.3233 51.7363 35.31C51.503 35.8233 51.1763 36.57 50.7563 37.55C50.383 38.53 49.9397 39.6267 49.4263 40.84C50.173 40.14 50.943 39.51 51.7363 38.95C52.5297 38.3433 53.253 37.9467 53.9063 37.76C54.6063 37.5267 55.213 37.5267 55.7263 37.76C56.2863 37.9467 56.7063 38.46 56.9863 39.3C57.2663 40.0933 57.2663 41.0267 56.9863 42.1C56.753 43.1733 56.403 44.2933 55.9363 45.46C55.5163 46.58 55.073 47.7 54.6063 48.82C54.1397 49.8933 53.813 50.85 53.6263 51.69C54.1397 51.41 54.8397 50.92 55.7263 50.22C56.613 49.52 57.5463 48.7267 58.5263 47.84C59.553 46.9067 60.603 45.9267 61.6763 44.9C62.7497 43.8733 63.753 42.9167 64.6863 42.03C65.6197 41.1433 66.4363 40.3733 67.1363 39.72C67.8363 39.02 68.3263 38.5533 68.6063 38.32C68.233 38.74 67.6497 39.4167 66.8563 40.35C66.1097 41.2833 65.2463 42.3333 64.2663 43.5C63.2863 44.62 62.2597 45.7867 61.1863 47C60.113 48.2133 59.063 49.3567 58.0363 50.43C57.0563 51.4567 56.123 52.32 55.2363 53.02C54.3963 53.6733 53.743 54.0467 53.2763 54.14C52.3897 54.3267 51.8063 54.1633 51.5263 53.65C51.293 53.1367 51.223 52.4367 51.3163 51.55C51.4563 50.6633 51.713 49.66 52.0863 48.54C52.4597 47.3733 52.833 46.2533 53.2063 45.18C53.6263 44.06 53.9763 43.0567 54.2563 42.17C54.5363 41.2833 54.653 40.63 54.6063 40.21C54.1397 40.3033 53.5097 40.6767 52.7163 41.33C51.923 41.9833 51.1063 42.73 50.2663 43.57C49.4263 44.3633 48.633 45.1567 47.8863 45.95C47.1397 46.7433 46.6263 47.28 46.3463 47.56C46.253 47.7467 46.183 47.91 46.1363 48.05C46.043 48.19 45.9497 48.3067 45.8563 48.4C45.483 48.9133 45.0397 49.2867 44.5263 49.52C44.013 49.7067 43.453 49.66 42.8463 49.38ZM52.9963 27.61C53.883 25.93 54.8397 23.9233 55.8663 21.59C56.9397 19.21 57.943 16.8767 58.8763 14.59C59.8097 12.2567 60.603 10.1333 61.2563 8.22C61.9563 6.26 62.3763 4.83666 62.5163 3.95C62.003 4.93 61.3263 6.42333 60.4863 8.43C59.6463 10.4367 58.7597 12.6067 57.8263 14.94C56.9397 17.2267 56.053 19.5133 55.1663 21.8C54.2797 24.0867 53.5563 26.0233 52.9963 27.61ZM73.7666 39.16C73.44 37.62 72.95 36.9433 72.2966 37.13C71.69 37.27 71.06 37.83 70.4066 38.81C69.7533 39.7433 69.1466 40.8867 68.5866 42.24C68.0266 43.5467 67.6766 44.62 67.5366 45.46C67.9566 45.18 68.54 44.7833 69.2866 44.27C70.0333 43.71 70.7566 43.1267 71.4566 42.52C72.1566 41.8667 72.74 41.26 73.2066 40.7C73.72 40.0933 73.9066 39.58 73.7666 39.16ZM90.3566 37.83C89.89 38.39 89.0966 39.23 87.9766 40.35C86.9033 41.4233 85.7133 42.5433 84.4066 43.71C83.1 44.83 81.77 45.8567 80.4166 46.79C79.0633 47.6767 77.8733 48.2133 76.8466 48.4C75.82 48.5867 75.05 48.3067 74.5366 47.56C74.07 46.7667 74.07 45.2267 74.5366 42.94C73.7433 43.7333 72.95 44.48 72.1566 45.18C71.41 45.88 70.6866 46.51 69.9866 47.07C69.2866 47.5833 68.6566 48.0033 68.0966 48.33C67.5366 48.61 67.07 48.7267 66.6966 48.68C65.5766 48.5867 64.9233 48.0267 64.7366 47C64.55 45.9733 64.6666 44.8067 65.0866 43.5C65.5066 42.1467 66.16 40.7933 67.0466 39.44C67.9333 38.04 68.89 36.92 69.9166 36.08C70.99 35.24 72.04 34.8433 73.0666 34.89C74.0933 34.89 74.9566 35.59 75.6566 36.99C76.03 36.4767 76.4733 35.8933 76.9866 35.24C77.5 34.54 78.0133 34.0733 78.5266 33.84C78.7133 33.7467 78.9233 33.7233 79.1566 33.77C79.39 33.8167 79.5766 34.0033 79.7166 34.33C79.81 34.47 79.6933 34.9133 79.3666 35.66C79.0866 36.36 78.7366 37.2 78.3166 38.18C77.8966 39.1133 77.4766 40.1167 77.0566 41.19C76.6833 42.2167 76.4266 43.15 76.2866 43.99C76.1933 44.7833 76.2866 45.39 76.5666 45.81C76.8466 46.23 77.4533 46.2767 78.3866 45.95C79.2266 45.67 80.23 45.18 81.3966 44.48C82.5633 43.7333 83.7066 42.9633 84.8266 42.17C85.9933 41.33 87.0666 40.5133 88.0466 39.72C89.0733 38.9267 89.8433 38.2967 90.3566 37.83ZM92.5633 36.36C92.1899 37.4333 91.8399 38.4133 91.5133 39.3C91.2333 40.14 90.9533 40.98 90.6733 41.82C90.3933 42.66 90.1133 43.5 89.8333 44.34C89.5533 45.18 89.2733 46.09 88.9933 47.07C88.8066 47.6767 88.8533 48.0033 89.1333 48.05C89.4599 48.05 89.9033 47.8867 90.4633 47.56C91.0233 47.1867 91.6533 46.72 92.3533 46.16C93.0999 45.6 93.8233 45.0167 94.5233 44.41C95.2233 43.8033 95.8533 43.2667 96.4133 42.8C96.9733 42.3333 97.3466 42.0067 97.5333 41.82C98.4666 41.12 99.3299 40.42 100.123 39.72C100.917 39.02 101.593 38.39 102.153 37.83C101.78 38.25 101.22 38.88 100.473 39.72C99.7266 40.56 98.8866 41.4933 97.9533 42.52C97.0199 43.5 96.0399 44.5033 95.0133 45.53C93.9866 46.5567 93.0066 47.49 92.0733 48.33C91.1399 49.17 90.2999 49.8233 89.5533 50.29C88.8066 50.7567 88.2233 50.9433 87.8033 50.85C86.8699 50.6633 86.4033 49.8933 86.4033 48.54C86.4033 47.1867 86.6366 45.6467 87.1033 43.92C87.5699 42.1467 88.1533 40.3967 88.8533 38.67C89.5533 36.9433 90.1133 35.59 90.5333 34.61C90.5799 34.47 90.7433 34.4 91.0233 34.4C91.3033 34.4 91.5833 34.47 91.8633 34.61C92.1899 34.75 92.4233 34.9833 92.5633 35.31C92.7499 35.59 92.7499 35.94 92.5633 36.36ZM92.7033 29.15C93.4499 29.6167 93.9866 30.0833 94.3133 30.55C94.6866 31.0167 94.8266 31.39 94.7333 31.67C94.6866 31.95 94.4299 32.1133 93.9633 32.16C93.4966 32.16 92.8433 31.95 92.0033 31.53C91.8633 31.4833 91.7466 31.2967 91.6533 30.97C91.6066 30.6433 91.6066 30.3167 91.6533 29.99C91.6999 29.6633 91.7933 29.4067 91.9333 29.22C92.1199 28.9867 92.3766 28.9633 92.7033 29.15ZM103.274 36.29C103.181 36.5233 103.088 36.8267 102.994 37.2C102.901 37.5267 102.784 37.9 102.644 38.32C103.671 37.4333 104.698 36.7333 105.724 36.22C106.751 35.66 107.684 35.31 108.524 35.17C109.364 35.03 110.041 35.1233 110.554 35.45C111.068 35.7767 111.371 36.36 111.464 37.2C111.464 37.3867 111.394 37.83 111.254 38.53C111.161 39.1833 111.021 39.7667 110.834 40.28C110.648 40.7933 110.461 41.12 110.274 41.26C110.088 41.3533 109.971 40.9333 109.924 40C109.784 38.7867 109.434 38.04 108.874 37.76C108.361 37.4333 107.708 37.4567 106.914 37.83C105.421 38.53 104.161 39.5567 103.134 40.91C102.108 42.2167 101.268 43.5467 100.614 44.9C100.008 46.3 99.401 47.42 98.7944 48.26C98.1877 49.0533 97.511 49.17 96.7644 48.61C96.671 48.5167 96.6944 48.2833 96.8344 47.91C96.9744 47.5367 97.1844 47.07 97.4644 46.51C98.3044 44.69 99.0277 42.7067 99.6344 40.56C100.194 38.3667 100.684 36.3367 101.104 34.47C101.104 34.3767 101.244 34.3533 101.524 34.4C101.804 34.4 102.084 34.4933 102.364 34.68C102.691 34.82 102.948 35.03 103.134 35.31C103.368 35.5433 103.414 35.87 103.274 36.29Z" fill="#FBF7E4"/>
</svg>
